<mxfile host="app.diagrams.net" modified="2023-05-28T18:35:43.575Z" agent="Mozilla/5.0 (Windows NT 10.0; Win64; x64) AppleWebKit/537.36 (KHTML, like Gecko) Chrome/113.0.0.0 Safari/537.36" etag="6tqPXLvS63TN4e1r9o8U" version="21.3.4" type="device">
  <diagram name="Page-1" id="Rn30V9LT4goVMZbr3MII">
    <mxGraphModel dx="1434" dy="822" grid="1" gridSize="10" guides="1" tooltips="1" connect="1" arrows="1" fold="1" page="1" pageScale="1" pageWidth="827" pageHeight="1169" math="0" shadow="0">
      <root>
        <mxCell id="0" />
        <mxCell id="1" parent="0" />
        <mxCell id="T8Uv4oPCRrsvSY-ZDlu5-1" value="Sign Up" style="swimlane;childLayout=stackLayout;resizeParent=1;resizeParentMax=0;startSize=20;html=1;" vertex="1" parent="1">
          <mxGeometry x="230.00000000000045" y="180" width="770" height="720" as="geometry" />
        </mxCell>
        <mxCell id="T8Uv4oPCRrsvSY-ZDlu5-62" value="Unregistered User" style="swimlane;startSize=20;html=1;" vertex="1" parent="T8Uv4oPCRrsvSY-ZDlu5-1">
          <mxGeometry y="20" width="180" height="700" as="geometry" />
        </mxCell>
        <mxCell id="T8Uv4oPCRrsvSY-ZDlu5-18" value="Admin" style="swimlane;startSize=20;html=1;" vertex="1" parent="T8Uv4oPCRrsvSY-ZDlu5-1">
          <mxGeometry x="180" y="20" width="410" height="700" as="geometry" />
        </mxCell>
        <mxCell id="T8Uv4oPCRrsvSY-ZDlu5-113" value="" style="ellipse;html=1;shape=startState;fillColor=#000000;strokeColor=#ff0000;" vertex="1" parent="T8Uv4oPCRrsvSY-ZDlu5-18">
          <mxGeometry x="189.99999999999955" y="60" width="30" height="30" as="geometry" />
        </mxCell>
        <mxCell id="T8Uv4oPCRrsvSY-ZDlu5-114" value="" style="edgeStyle=orthogonalEdgeStyle;html=1;verticalAlign=bottom;endArrow=open;endSize=8;strokeColor=#ff0000;rounded=0;" edge="1" parent="T8Uv4oPCRrsvSY-ZDlu5-18" source="T8Uv4oPCRrsvSY-ZDlu5-113">
          <mxGeometry relative="1" as="geometry">
            <mxPoint x="204.99999999999955" y="150" as="targetPoint" />
          </mxGeometry>
        </mxCell>
        <mxCell id="T8Uv4oPCRrsvSY-ZDlu5-115" value="Login to Database" style="rounded=1;whiteSpace=wrap;html=1;arcSize=40;fontColor=#000000;fillColor=#ffffc0;strokeColor=#ff0000;" vertex="1" parent="T8Uv4oPCRrsvSY-ZDlu5-18">
          <mxGeometry x="144.99999999999955" y="160" width="120" height="40" as="geometry" />
        </mxCell>
        <mxCell id="T8Uv4oPCRrsvSY-ZDlu5-116" value="" style="edgeStyle=orthogonalEdgeStyle;html=1;verticalAlign=bottom;endArrow=open;endSize=8;strokeColor=#ff0000;rounded=0;" edge="1" parent="T8Uv4oPCRrsvSY-ZDlu5-18" source="T8Uv4oPCRrsvSY-ZDlu5-115">
          <mxGeometry relative="1" as="geometry">
            <mxPoint x="204.99999999999955" y="260" as="targetPoint" />
          </mxGeometry>
        </mxCell>
        <mxCell id="T8Uv4oPCRrsvSY-ZDlu5-117" value="Find Unregistered user details" style="rounded=1;whiteSpace=wrap;html=1;arcSize=40;fontColor=#000000;fillColor=#ffffc0;strokeColor=#ff0000;" vertex="1" parent="T8Uv4oPCRrsvSY-ZDlu5-18">
          <mxGeometry x="144.99999999999955" y="260" width="120" height="40" as="geometry" />
        </mxCell>
        <mxCell id="T8Uv4oPCRrsvSY-ZDlu5-118" value="" style="edgeStyle=orthogonalEdgeStyle;html=1;verticalAlign=bottom;endArrow=open;endSize=8;strokeColor=#ff0000;rounded=0;" edge="1" parent="T8Uv4oPCRrsvSY-ZDlu5-18" source="T8Uv4oPCRrsvSY-ZDlu5-117">
          <mxGeometry relative="1" as="geometry">
            <mxPoint x="204.99999999999955" y="360" as="targetPoint" />
          </mxGeometry>
        </mxCell>
        <mxCell id="T8Uv4oPCRrsvSY-ZDlu5-119" value="" style="shape=line;html=1;strokeWidth=6;strokeColor=#ff0000;" vertex="1" parent="T8Uv4oPCRrsvSY-ZDlu5-18">
          <mxGeometry x="109.99999999999955" y="360" width="200" height="10" as="geometry" />
        </mxCell>
        <mxCell id="T8Uv4oPCRrsvSY-ZDlu5-120" value="" style="edgeStyle=orthogonalEdgeStyle;html=1;verticalAlign=bottom;endArrow=open;endSize=8;strokeColor=#ff0000;rounded=0;entryX=0.537;entryY=-0.024;entryDx=0;entryDy=0;entryPerimeter=0;" edge="1" parent="T8Uv4oPCRrsvSY-ZDlu5-18" target="T8Uv4oPCRrsvSY-ZDlu5-123">
          <mxGeometry relative="1" as="geometry">
            <mxPoint x="135.99999999999955" y="420" as="targetPoint" />
            <mxPoint x="134.99999999999955" y="370" as="sourcePoint" />
            <Array as="points" />
          </mxGeometry>
        </mxCell>
        <mxCell id="T8Uv4oPCRrsvSY-ZDlu5-121" value="Update Details" style="rounded=1;whiteSpace=wrap;html=1;arcSize=40;fontColor=#000000;fillColor=#ffffc0;strokeColor=#ff0000;" vertex="1" parent="T8Uv4oPCRrsvSY-ZDlu5-18">
          <mxGeometry x="220.99999999999955" y="443" width="120" height="40" as="geometry" />
        </mxCell>
        <mxCell id="T8Uv4oPCRrsvSY-ZDlu5-122" value="" style="edgeStyle=orthogonalEdgeStyle;html=1;verticalAlign=bottom;endArrow=open;endSize=8;strokeColor=#ff0000;rounded=0;" edge="1" parent="T8Uv4oPCRrsvSY-ZDlu5-18" source="T8Uv4oPCRrsvSY-ZDlu5-121">
          <mxGeometry relative="1" as="geometry">
            <mxPoint x="280.99999999999955" y="543" as="targetPoint" />
          </mxGeometry>
        </mxCell>
        <mxCell id="T8Uv4oPCRrsvSY-ZDlu5-123" value="Add details to Registered Database" style="rounded=1;whiteSpace=wrap;html=1;arcSize=40;fontColor=#000000;fillColor=#ffffc0;strokeColor=#ff0000;" vertex="1" parent="T8Uv4oPCRrsvSY-ZDlu5-18">
          <mxGeometry x="70.99999999999955" y="443" width="120" height="40" as="geometry" />
        </mxCell>
        <mxCell id="T8Uv4oPCRrsvSY-ZDlu5-124" value="" style="edgeStyle=orthogonalEdgeStyle;html=1;verticalAlign=bottom;endArrow=open;endSize=8;strokeColor=#ff0000;rounded=0;" edge="1" parent="T8Uv4oPCRrsvSY-ZDlu5-18" source="T8Uv4oPCRrsvSY-ZDlu5-123">
          <mxGeometry relative="1" as="geometry">
            <mxPoint x="130.99999999999955" y="543" as="targetPoint" />
          </mxGeometry>
        </mxCell>
        <mxCell id="T8Uv4oPCRrsvSY-ZDlu5-125" value="" style="edgeStyle=orthogonalEdgeStyle;html=1;verticalAlign=bottom;endArrow=open;endSize=8;strokeColor=#ff0000;rounded=0;exitX=0.839;exitY=0.824;exitDx=0;exitDy=0;exitPerimeter=0;" edge="1" parent="T8Uv4oPCRrsvSY-ZDlu5-18" source="T8Uv4oPCRrsvSY-ZDlu5-119">
          <mxGeometry relative="1" as="geometry">
            <mxPoint x="277.99999999999955" y="440" as="targetPoint" />
            <mxPoint x="134.99999999999955" y="370" as="sourcePoint" />
            <Array as="points" />
          </mxGeometry>
        </mxCell>
        <mxCell id="T8Uv4oPCRrsvSY-ZDlu5-126" value="" style="shape=line;html=1;strokeWidth=6;strokeColor=#ff0000;" vertex="1" parent="T8Uv4oPCRrsvSY-ZDlu5-18">
          <mxGeometry x="109.99999999999955" y="540" width="200" height="10" as="geometry" />
        </mxCell>
        <mxCell id="T8Uv4oPCRrsvSY-ZDlu5-127" value="" style="edgeStyle=orthogonalEdgeStyle;html=1;verticalAlign=bottom;endArrow=open;endSize=8;strokeColor=#ff0000;rounded=0;" edge="1" parent="T8Uv4oPCRrsvSY-ZDlu5-18" source="T8Uv4oPCRrsvSY-ZDlu5-126">
          <mxGeometry relative="1" as="geometry">
            <mxPoint x="209.99999999999955" y="620" as="targetPoint" />
          </mxGeometry>
        </mxCell>
        <mxCell id="T8Uv4oPCRrsvSY-ZDlu5-128" value="" style="ellipse;html=1;shape=endState;fillColor=#000000;strokeColor=#ff0000;" vertex="1" parent="T8Uv4oPCRrsvSY-ZDlu5-18">
          <mxGeometry x="194.99999999999955" y="620" width="30" height="30" as="geometry" />
        </mxCell>
        <mxCell id="T8Uv4oPCRrsvSY-ZDlu5-129" value="Add to Registered users" style="shape=umlFrame;whiteSpace=wrap;html=1;pointerEvents=0;width=100;height=30;" vertex="1" parent="T8Uv4oPCRrsvSY-ZDlu5-18">
          <mxGeometry x="29.999999999999545" y="50" width="350" height="620" as="geometry" />
        </mxCell>
        <mxCell id="T8Uv4oPCRrsvSY-ZDlu5-35" value="System" style="swimlane;startSize=20;html=1;" vertex="1" parent="T8Uv4oPCRrsvSY-ZDlu5-1">
          <mxGeometry x="590" y="20" width="180" height="700" as="geometry" />
        </mxCell>
        <mxCell id="T8Uv4oPCRrsvSY-ZDlu5-42" value="" style="endArrow=none;html=1;rounded=0;strokeWidth=1;entryX=-0.598;entryY=0.51;entryDx=0;entryDy=0;entryPerimeter=0;" edge="1" parent="T8Uv4oPCRrsvSY-ZDlu5-35">
          <mxGeometry width="50" height="50" relative="1" as="geometry">
            <mxPoint x="412.99999999999955" y="729" as="sourcePoint" />
            <mxPoint x="412.83999999999924" y="713.02" as="targetPoint" />
          </mxGeometry>
        </mxCell>
      </root>
    </mxGraphModel>
  </diagram>
</mxfile>
